<?xml version="1.0" encoding="utf-8"?>
<!-- Generator: Adobe Illustrator 16.0.0, SVG Export Plug-In . SVG Version: 6.00 Build 0)  -->
<!DOCTYPE svg PUBLIC "-//W3C//DTD SVG 1.1//EN" "http://www.w3.org/Graphics/SVG/1.1/DTD/svg11.dtd">
<svg version="1.1" id="Capa_1" xmlns="http://www.w3.org/2000/svg" xmlns:xlink="http://www.w3.org/1999/xlink" x="0px" y="0px"
	 width="103.561px" height="122.243px" viewBox="0 0 103.561 122.243" enable-background="new 0 0 103.561 122.243"
	 xml:space="preserve">
<g>
	<g>
		<path fill="#FFFFFF" d="M32.892,52.458v44.981c0,1.999-1.262,3.779-3.144,4.438c-2.664,0.938-5.878,1.433-9.3,1.433l0,0
			c-9.841,0-20.427-4.036-20.427-12.906V32.845c-0.22-3.952,1.159-10.937,7.78-14.715c3.073-1.756,19.211-12.133,27.315-17.376
			c1.446-0.937,3.291-1.002,4.806-0.183c1.516,0.829,2.457,2.414,2.457,4.137v6.815c0,2.598-2.109,4.706-4.706,4.706
			c-2.024,0-3.751-1.275-4.415-3.073C25.935,17.861,15.149,24.77,12.47,26.3c-2.41,1.378-2.932,3.911-3.035,5.285
			c0,1.544,0.334,2.757,0.937,3.422c1.67,1.821,7.237,0.687,13.313-2.961c5.837-3.501,34.621-22.665,34.907-22.859
			c1.454-0.965,3.309-1.054,4.827-0.23c1.534,0.818,2.491,2.414,2.491,4.15v0.537c0,1.572-0.786,3.041-2.09,3.916
			c0,0-19.983,13.337-21.752,14.471C35.296,36.39,32.892,41.736,32.892,52.458z M103.561,29.745v61.097
			c0,1.615-0.831,3.122-2.202,3.983c0,0-27.439,21.31-33.005,24.694c-2.93,1.782-6.656,2.724-10.772,2.724
			c-9.785,0-19.908-5.296-19.908-14.148V51.073v-1.378c0-0.019,0.014-0.039,0.014-0.062c0.094-3.446,0.899-8.363,7.304-13.089
			c3.84-2.833,26.715-18.43,27.682-19.089c1.444-0.978,3.315-1.083,4.85-0.272c1.542,0.814,2.507,2.414,2.507,4.159v6.815
			c0,2.598-2.104,4.707-4.704,4.707c-1.946,0-3.617-1.177-4.331-2.861c-7.3,4.993-18.016,12.348-20.417,14.114
			c-3.032,2.24-3.437,3.718-3.487,5.615c0.009,1.408,0.39,2.479,1.162,3.187c2.4,2.197,8.862,1.275,15.236-2.546
			c4.716-2.834,25.036-18.525,32.462-24.332c1.428-1.102,3.347-1.305,4.967-0.519C102.535,26.31,103.561,27.941,103.561,29.745z
			 M94.15,50.716L70.616,68.971v9.415L94.15,60.128V50.716z"/>
	</g>
</g>
</svg>
