<?xml version="1.0" encoding="utf-8"?>
<!-- Generator: Adobe Illustrator 16.0.0, SVG Export Plug-In . SVG Version: 6.00 Build 0)  -->
<!DOCTYPE svg PUBLIC "-//W3C//DTD SVG 1.1//EN" "http://www.w3.org/Graphics/SVG/1.1/DTD/svg11.dtd">
<svg version="1.1" id="Capa_1" xmlns="http://www.w3.org/2000/svg" xmlns:xlink="http://www.w3.org/1999/xlink" x="0px" y="0px"
	 width="85.456px" height="101.521px" viewBox="0 0 85.456 101.521" enable-background="new 0 0 85.456 101.521"
	 xml:space="preserve">
<g>
	<g>
		<path fill="#FFFFFF" d="M82.224,0h-67.84C6.452,0,0,6.453,0,14.385v72.75c0,7.929,6.452,14.383,14.383,14.387h67.84
			c1.785,0,3.232-1.447,3.232-3.232V75.982V25.539V3.232C85.456,1.447,84.009,0,82.224,0z M14.383,6.464h64.609v19.075v47.212
			H14.383c-2.924,0-5.646,0.88-7.919,2.385V14.385C6.464,10.017,10.017,6.464,14.383,6.464z M14.384,95.058
			c-4.368-0.002-7.921-3.556-7.921-7.923s3.553-7.92,7.919-7.92h64.608v4.688H14.383c-1.786,0-3.232,1.447-3.232,3.232
			c0,1.784,1.446,3.231,3.232,3.231h64.609v4.691H14.384z"/>
		<path fill="#FFFFFF" d="M18.666,40.163H66.79c1.785,0,3.231-1.447,3.231-3.231V21.03c0-1.784-1.446-3.231-3.231-3.231H18.666
			c-1.785,0-3.232,1.447-3.232,3.231v15.901C15.434,38.716,16.881,40.163,18.666,40.163z M21.898,24.263h41.66v9.437h-41.66V24.263z
			"/>
	</g>
	<g>
	</g>
	<g>
	</g>
	<g>
	</g>
	<g>
	</g>
	<g>
	</g>
	<g>
	</g>
	<g>
	</g>
	<g>
	</g>
	<g>
	</g>
	<g>
	</g>
	<g>
	</g>
	<g>
	</g>
	<g>
	</g>
	<g>
	</g>
	<g>
	</g>
</g>
</svg>
