<?xml version="1.0" encoding="utf-8"?>
<!-- Generator: Adobe Illustrator 16.0.3, SVG Export Plug-In . SVG Version: 6.00 Build 0)  -->
<!DOCTYPE svg PUBLIC "-//W3C//DTD SVG 1.1//EN" "http://www.w3.org/Graphics/SVG/1.1/DTD/svg11.dtd">
<svg version="1.1" id="Capa_1" xmlns="http://www.w3.org/2000/svg" xmlns:xlink="http://www.w3.org/1999/xlink" x="0px" y="0px"
	 width="161.642px" height="180.209px" viewBox="0 0 161.642 180.209" enable-background="new 0 0 161.642 180.209"
	 xml:space="preserve">
<path fill="#FFFFFF" d="M158.697,55.609c-0.014-5.886-1.356-10.579-6.255-13.673c-2.552-1.971-4.891-3.458-7.837-4.887
	C126.74,26.69,109.127,16.379,91.23,6.075c-2.647-1.527-5.337-2.285-8.292-2.187c-2.955-0.098-5.716,0.66-8.364,2.187
	C56.676,16.379,38.819,26.69,20.953,37.049c-2.945,1.43-5.833,2.917-8.385,4.887c-4.9,3.094-9.748,7.788-9.76,13.673
	c-0.025,11.753-0.014,58.788,0.009,70.543c0.013,5.884,3.673,10.576,8.573,13.671c2.552,1.971,6.057,3.459,9.002,4.888
	c17.867,10.358,36.057,20.67,53.955,30.974c2.647,1.525,5.628,2.286,8.582,2.188c2.956,0.099,5.86-0.662,8.509-2.188
	c17.897-10.304,35.829-20.615,53.695-30.974c2.945-1.429,5.869-2.917,8.421-4.888c4.903-3.095,5.12-7.787,5.132-13.671
	C158.708,114.397,158.718,67.362,158.697,55.609z"/>
<path fill="#2779BB" d="M161.625,53.575c-0.014-6.096-2.594-10.955-7.668-14.16c-2.643-2.041-5.662-3.582-8.713-5.063
	C126.741,23.626,108.206,12.946,89.67,2.274c-2.744-1.58-5.679-2.367-8.739-2.266c-3.059-0.102-5.994,0.686-8.736,2.266
	C53.66,12.946,35.127,23.626,16.624,34.353c-3.051,1.48-6.059,3.021-8.701,5.063c-5.075,3.205-7.892,8.064-7.903,14.16
	c-0.025,12.174-0.024,60.885-0.001,73.059c0.014,6.096,2.698,10.955,7.772,14.16c2.643,2.041,5.718,3.582,8.769,5.063
	c18.504,10.727,37.066,21.406,55.602,32.078c2.744,1.58,5.692,2.367,8.752,2.266c3.06,0.102,6-0.686,8.743-2.266
	c18.535-10.672,37.071-21.352,55.575-32.078c3.051-1.48,6.063-3.021,8.705-5.063c5.074-3.205,7.674-8.064,7.688-14.16
	C161.647,114.46,161.649,65.749,161.625,53.575z"/>
<path fill="#FFFFFF" d="M153.723,57.114c-0.012-5.504-1.268-9.893-5.85-12.787c-2.386-1.843-4.574-3.234-7.329-4.572
	c-16.711-9.688-33.184-19.332-49.923-28.97c-2.477-1.427-4.992-2.138-7.756-2.046c-2.763-0.092-5.347,0.619-7.823,2.046
	c-16.739,9.638-33.441,19.282-50.152,28.97c-2.755,1.338-5.456,2.729-7.843,4.572c-4.582,2.895-9.116,7.283-9.127,12.787
	c-0.023,10.994-0.014,54.986,0.008,65.98c0.012,5.504,3.436,9.893,8.019,12.787c2.386,1.844,5.664,3.234,8.419,4.572
	c16.711,9.688,33.725,19.332,50.464,28.969c2.477,1.428,5.265,2.139,8.028,2.047c2.764,0.092,5.48-0.619,7.958-2.047
	c16.739-9.637,33.51-19.281,50.221-28.969c2.755-1.338,5.489-2.729,7.876-4.572c4.586-2.895,4.789-7.283,4.801-12.787
	C153.735,112.101,153.745,68.108,153.723,57.114z"/>
<path fill="#2779BB" d="M147.149,60.835c-0.012-5.014-1.155-9.012-5.328-11.647c-2.174-1.679-4.166-2.945-6.676-4.163
	C119.926,36.2,104.923,27.417,89.677,18.64c-2.255-1.301-4.546-1.946-7.063-1.863c-2.517-0.083-4.869,0.563-7.125,1.863
	C60.243,27.417,45.032,36.2,29.812,45.024c-2.509,1.218-4.969,2.484-7.143,4.163c-4.174,2.636-8.304,6.634-8.313,11.647
	c-0.021,10.012-0.012,50.078,0.008,60.092c0.011,5.012,3.129,9.009,7.303,11.646c2.174,1.679,5.159,2.946,7.668,4.163
	c15.22,8.824,30.715,17.607,45.961,26.385c2.255,1.3,4.795,1.947,7.311,1.863c2.518,0.084,4.992-0.563,7.248-1.863
	c15.246-8.777,30.521-17.561,45.74-26.385c2.509-1.217,4.999-2.484,7.173-4.163c4.177-2.637,4.361-6.634,4.372-11.646
	C147.159,110.913,147.167,70.847,147.149,60.835z"/>
</svg>
