<?xml version="1.0" encoding="utf-8"?>
<!-- Generator: Adobe Illustrator 16.0.3, SVG Export Plug-In . SVG Version: 6.00 Build 0)  -->
<!DOCTYPE svg PUBLIC "-//W3C//DTD SVG 1.1//EN" "http://www.w3.org/Graphics/SVG/1.1/DTD/svg11.dtd">
<svg version="1.1" id="Capa_1" xmlns="http://www.w3.org/2000/svg" xmlns:xlink="http://www.w3.org/1999/xlink" x="0px" y="0px"
	 width="267px" height="107px" viewBox="0 0 267 107" enable-background="new 0 0 267 107" xml:space="preserve">
<rect fill="none" width="267" height="107"/>
<path fill="#FFFFFF" d="M136.843,21.958c0-0.117,0.096-0.219,0.221-0.219h4.574c0.123,0,0.215,0.102,0.215,0.219v0.639
	c0,0.114-0.092,0.22-0.215,0.22h-3.615v2.332h3.053c0.117,0,0.218,0.1,0.218,0.215v0.64c0,0.127-0.101,0.221-0.218,0.221h-3.053
	v2.458h3.615c0.123,0,0.215,0.102,0.215,0.216v0.63c0,0.114-0.092,0.215-0.215,0.215h-4.574c-0.125,0-0.221-0.101-0.221-0.215
	V21.958z"/>
<path fill="#FFFFFF" d="M143.708,21.958c0-0.117,0.091-0.219,0.218-0.219h0.753c0.115,0,0.215,0.102,0.215,0.219v6.724h3.101
	c0.128,0,0.217,0.102,0.217,0.216v0.63c0,0.114-0.089,0.215-0.217,0.215h-4.068c-0.127,0-0.218-0.101-0.218-0.215V21.958z"/>
<path fill="#FFFFFF" d="M152.185,21.958c0-0.117,0.092-0.219,0.214-0.219h0.756c0.116,0,0.219,0.102,0.219,0.219v6.724h3.099
	c0.127,0,0.217,0.102,0.217,0.216v0.63c0,0.114-0.09,0.215-0.217,0.215h-4.073c-0.122,0-0.214-0.101-0.214-0.215V21.958z"/>
<path fill="#FFFFFF" d="M157.765,21.958c0-0.117,0.104-0.219,0.218-0.219h0.769c0.123,0,0.213,0.102,0.213,0.219v4.724
	c0,1.141,0.734,2.033,1.898,2.033c1.18,0,1.924-0.881,1.924-2.012v-4.745c0-0.117,0.09-0.219,0.217-0.219h0.767
	c0.112,0,0.218,0.102,0.218,0.219v4.8c0,1.739-1.318,3.101-3.125,3.101c-1.793,0-3.098-1.361-3.098-3.101V21.958z"/>
<path fill="#FFFFFF" d="M169.762,21.625c1.098,0,2.002,0.4,2.774,1.064c0.095,0.093,0.108,0.227,0.017,0.317
	c-0.173,0.185-0.345,0.356-0.517,0.538c-0.09,0.104-0.181,0.093-0.297-0.01c-0.535-0.469-1.244-0.78-1.943-0.78
	c-1.625,0-2.869,1.375-2.869,2.975c0,1.59,1.244,2.964,2.869,2.964c0.949,0,1.604-0.345,1.716-0.39v-1.28h-1.123
	c-0.123,0-0.216-0.093-0.216-0.205v-0.665c0-0.124,0.093-0.216,0.216-0.216h2.086c0.11,0,0.203,0.103,0.203,0.216
	c0,0.917,0.011,1.853,0.011,2.769c0,0.055-0.044,0.146-0.089,0.181c0,0-1.179,0.756-2.838,0.756c-2.272,0-4.116-1.818-4.116-4.104
	C165.646,23.466,167.49,21.625,169.762,21.625"/>
<path fill="#FFFFFF" d="M173.541,29.447l3.509-7.695c0.035-0.068,0.135-0.127,0.192-0.127h0.117c0.056,0,0.156,0.059,0.194,0.127
	l3.483,7.695c0.07,0.146-0.02,0.296-0.192,0.296h-0.719c-0.138,0-0.218-0.068-0.261-0.169l-0.711-1.568h-3.738
	c-0.227,0.527-0.471,1.039-0.699,1.568c-0.035,0.079-0.127,0.169-0.262,0.169h-0.721C173.562,29.743,173.468,29.594,173.541,29.447
	 M178.721,27.023l-1.409-3.136h-0.056l-1.396,3.136H178.721z"/>
<path fill="#FFFFFF" d="M182.308,21.958c0-0.116,0.096-0.219,0.221-0.219h3.111c1.374,0,2.492,1.088,2.492,2.449
	c0,1.052-0.698,1.92-1.691,2.32l1.565,2.901c0.078,0.15,0,0.332-0.196,0.332h-0.892c-0.091,0-0.16-0.056-0.183-0.101l-1.519-3.029
	h-1.726v2.915c0,0.114-0.104,0.215-0.223,0.215h-0.74c-0.125,0-0.221-0.101-0.221-0.215V21.958z M185.547,25.63
	c0.745,0,1.397-0.632,1.397-1.42c0-0.743-0.652-1.36-1.397-1.36h-2.033v2.78H185.547z"/>
<path fill="#FFFFFF" d="M136.843,32.759c0-0.114,0.096-0.219,0.207-0.219h2.633c2.207,0,4.011,1.797,4.011,3.993
	c0,2.218-1.804,4.012-4.011,4.012h-2.633c-0.111,0-0.207-0.101-0.207-0.217V32.759z M139.521,39.461
	c1.678,0,2.906-1.235,2.906-2.928c0-1.68-1.229-2.906-2.906-2.906h-1.51v5.834H139.521z"/>
<path fill="#FFFFFF" d="M148.992,32.428c2.287,0,4.115,1.839,4.115,4.129c0,2.286-1.828,4.104-4.115,4.104s-4.104-1.817-4.104-4.104
	C144.888,34.267,146.705,32.428,148.992,32.428 M148.992,39.515c1.633,0,2.973-1.324,2.973-2.958c0-1.625-1.34-2.986-2.973-2.986
	c-1.625,0-2.959,1.361-2.959,2.986C146.033,38.19,147.367,39.515,148.992,39.515"/>
<path fill="#FFFFFF" d="M154.871,32.637c0-0.116,0.104-0.209,0.221-0.209h0.283l4.965,5.741h0.011V32.76
	c0-0.115,0.09-0.221,0.213-0.221h0.731c0.119,0,0.222,0.105,0.222,0.221v7.692c0,0.117-0.103,0.208-0.222,0.208h-0.293l-4.965-5.898
	h-0.011v5.566c0,0.116-0.091,0.218-0.219,0.218h-0.716c-0.117,0-0.221-0.102-0.221-0.218V32.637z"/>
<path fill="#FFFFFF" d="M163.863,32.759c0-0.114,0.091-0.219,0.207-0.219h2.629c2.205,0,4.012,1.797,4.012,3.993
	c0,2.218-1.807,4.012-4.012,4.012h-2.629c-0.116,0-0.207-0.101-0.207-0.217V32.759z M166.539,39.461
	c1.678,0,2.898-1.235,2.898-2.928c0-1.68-1.221-2.906-2.898-2.906h-1.508v5.834H166.539z"/>
<path fill="#FFFFFF" d="M172.488,32.76c0-0.116,0.09-0.22,0.217-0.22h4.574c0.123,0,0.213,0.104,0.213,0.22v0.64
	c0,0.115-0.09,0.217-0.213,0.217h-3.615v2.333h3.053c0.113,0,0.221,0.104,0.221,0.218v0.641c0,0.125-0.107,0.216-0.221,0.216h-3.053
	v2.461h3.615c0.123,0,0.213,0.101,0.213,0.216v0.629c0,0.114-0.09,0.216-0.213,0.216h-4.574c-0.127,0-0.217-0.102-0.217-0.216V32.76
	z"/>
<path fill="#FFFFFF" d="M181.478,39.392c0.102-0.149,0.194-0.319,0.297-0.471c0.103-0.146,0.262-0.191,0.388-0.092
	c0.069,0.062,0.95,0.792,1.829,0.792c0.791,0,1.293-0.48,1.293-1.063c0-0.687-0.594-1.121-1.727-1.591
	c-1.166-0.489-2.08-1.097-2.08-2.426c0-0.888,0.685-2.114,2.502-2.114c1.146,0,2.002,0.596,2.115,0.678
	c0.094,0.055,0.184,0.216,0.068,0.388c-0.09,0.135-0.194,0.297-0.283,0.438c-0.094,0.145-0.24,0.213-0.4,0.11
	c-0.082-0.045-0.879-0.569-1.541-0.569c-0.965,0-1.295,0.604-1.295,1.026c0,0.653,0.502,1.053,1.451,1.442
	c1.324,0.538,2.457,1.166,2.457,2.559c0,1.191-1.064,2.162-2.55,2.162c-1.396,0-2.274-0.73-2.455-0.903
	C181.445,39.664,181.363,39.584,181.478,39.392"/>
<path fill="#FFFFFF" d="M188.26,32.76c0-0.116,0.09-0.22,0.218-0.22h4.57c0.129,0,0.218,0.104,0.218,0.22v0.64
	c0,0.115-0.089,0.217-0.218,0.217h-3.611v2.333h3.055c0.112,0,0.215,0.104,0.215,0.218v0.641c0,0.125-0.103,0.216-0.215,0.216
	h-3.055v2.461h3.611c0.129,0,0.218,0.101,0.218,0.216v0.629c0,0.114-0.089,0.216-0.218,0.216h-4.57
	c-0.128,0-0.218-0.102-0.218-0.216V32.76z"/>
<path fill="#FFFFFF" d="M136.933,43.003c0-0.139,0.113-0.265,0.266-0.265h3.355c1.717,0,3.125,1.393,3.125,3.08
	c0,1.729-1.408,3.132-3.107,3.132h-1.463v3.275c0,0.14-0.125,0.265-0.267,0.265h-1.644c-0.152,0-0.266-0.125-0.266-0.265V43.003z
	 M140.431,46.917c0.6,0,1.101-0.472,1.101-1.099c0-0.587-0.501-1.033-1.101-1.033h-1.322v2.132H140.431z"/>
<path fill="#FFFFFF" d="M149.431,42.598c2.787,0,5.016,2.243,5.016,5.029c0,2.785-2.229,5.005-5.016,5.005c-2.784,0-5-2.22-5-5.005
	C144.431,44.841,146.647,42.598,149.431,42.598 M149.431,50.401c1.533,0,2.787-1.255,2.787-2.774c0-1.528-1.254-2.799-2.787-2.799
	c-1.519,0-2.774,1.271-2.774,2.799C146.657,49.146,147.913,50.401,149.431,50.401"/>
<path fill="#FFFFFF" d="M157.333,44.785h-1.994c-0.153,0-0.262-0.124-0.262-0.265v-1.518c0-0.139,0.108-0.265,0.262-0.265h6.186
	c0.154,0,0.266,0.126,0.266,0.265v1.518c0,0.141-0.111,0.265-0.266,0.265h-1.992v7.44c0,0.14-0.124,0.266-0.265,0.266h-1.67
	c-0.14,0-0.265-0.126-0.265-0.266V44.785z"/>
<path fill="#FFFFFF" d="M163.186,43.003c0-0.14,0.112-0.265,0.265-0.265h5.766c0.152,0,0.271,0.125,0.271,0.265v1.518
	c0,0.14-0.118,0.264-0.271,0.264h-3.858v1.73h3.177c0.144,0,0.271,0.125,0.271,0.264v1.52c0,0.152-0.127,0.264-0.271,0.264h-3.177
	v1.881h3.858c0.152,0,0.271,0.123,0.271,0.263v1.521c0,0.139-0.118,0.265-0.271,0.265h-5.766c-0.152,0-0.265-0.126-0.265-0.265
	V43.003z"/>
<path fill="#FFFFFF" d="M171.339,42.85c0-0.14,0.121-0.252,0.262-0.252h0.352l5.559,5.351h0.009v-4.946
	c0-0.139,0.115-0.264,0.271-0.264h1.67c0.136,0,0.262,0.125,0.262,0.264v9.377c0,0.14-0.126,0.252-0.262,0.252h-0.222
	c-0.046,0-0.155-0.042-0.185-0.068l-5.501-5.534h-0.013v5.198c0,0.139-0.111,0.264-0.267,0.264h-1.657
	c-0.14,0-0.264-0.125-0.264-0.264L171.339,42.85z"/>
<path fill="#FFFFFF" d="M186.44,42.598c1.396,0,2.427,0.433,3.375,1.298c0.124,0.11,0.124,0.278,0.011,0.39l-1.084,1.127
	c-0.102,0.098-0.25,0.098-0.348,0c-0.52-0.458-1.199-0.707-1.884-0.707c-1.572,0-2.728,1.308-2.728,2.867
	c0,1.547,1.168,2.829,2.741,2.829c0.654,0,1.367-0.238,1.87-0.668c0.098-0.087,0.277-0.087,0.363,0.013l1.084,1.155
	c0.098,0.1,0.084,0.281-0.016,0.379c-0.945,0.917-2.143,1.351-3.386,1.351c-2.784,0-5.026-2.219-5.026-5.004
	C181.414,44.84,183.656,42.598,186.44,42.598"/>
<path fill="#FFFFFF" d="M191.5,43.003c0-0.14,0.129-0.265,0.265-0.265h1.67c0.141,0,0.267,0.125,0.267,0.265v9.223
	c0,0.139-0.126,0.265-0.267,0.265h-1.67c-0.136,0-0.265-0.126-0.265-0.265V43.003z"/>
<path fill="#FFFFFF" d="M194.845,52.13l4.359-9.377c0.045-0.084,0.139-0.155,0.237-0.155h0.141c0.095,0,0.192,0.071,0.233,0.155
	l4.363,9.377c0.084,0.179-0.028,0.36-0.238,0.36h-1.545c-0.254,0-0.365-0.087-0.488-0.349l-0.502-1.101h-3.789l-0.5,1.112
	c-0.072,0.17-0.227,0.337-0.504,0.337h-1.533C194.872,52.49,194.759,52.309,194.845,52.13 M200.571,49.146l-1.058-2.299h-0.018
	l-1.042,2.299H200.571z"/>
<path fill="#FFFFFF" d="M136.933,54.947c0-0.139,0.113-0.267,0.266-0.267h1.658c0.139,0,0.266,0.128,0.266,0.267v7.438h3.316
	c0.151,0,0.264,0.126,0.264,0.265v1.519c0,0.139-0.112,0.267-0.264,0.267h-5.24c-0.152,0-0.266-0.128-0.266-0.267V54.947z"/>
<path fill="#FFFFFF" d="M143.259,64.07l4.36-9.376c0.041-0.08,0.141-0.149,0.239-0.149h0.136c0.099,0,0.198,0.069,0.239,0.149
	l4.36,9.376c0.083,0.184-0.028,0.365-0.237,0.365h-1.543c-0.254,0-0.367-0.084-0.488-0.349l-0.506-1.1h-3.789l-0.5,1.115
	c-0.07,0.163-0.221,0.333-0.504,0.333h-1.532C143.29,64.436,143.177,64.254,143.259,64.07 M148.986,61.091l-1.06-2.298h-0.014
	l-1.044,2.298H148.986z"/>
<path fill="#FFFFFF" d="M156.819,54.947c0-0.139,0.127-0.267,0.265-0.267h1.672c0.137,0,0.262,0.128,0.262,0.267v9.222
	c0,0.139-0.125,0.267-0.262,0.267h-1.672c-0.138,0-0.265-0.128-0.265-0.267V54.947z"/>
<path fill="#FFFFFF" d="M161.4,54.794c0-0.14,0.129-0.25,0.267-0.25h0.349l5.557,5.349h0.016v-4.945
	c0-0.139,0.109-0.266,0.266-0.266h1.672c0.136,0,0.265,0.127,0.265,0.266v9.377c0,0.14-0.129,0.247-0.265,0.247h-0.224
	c-0.043,0-0.151-0.039-0.181-0.066l-5.504-5.531h-0.014v5.195c0,0.139-0.111,0.267-0.264,0.267h-1.659
	c-0.137,0-0.265-0.128-0.265-0.267L161.4,54.794z"/>
<path fill="#FFFFFF" d="M172.175,54.794c0-0.14,0.127-0.25,0.263-0.25h0.347l5.561,5.349h0.014v-4.945
	c0-0.139,0.109-0.266,0.264-0.266h1.674c0.137,0,0.266,0.127,0.266,0.266v9.377c0,0.14-0.129,0.247-0.266,0.247h-0.225
	c-0.043,0-0.15-0.039-0.18-0.066l-5.504-5.531h-0.016v5.195c0,0.139-0.112,0.267-0.266,0.267h-1.654
	c-0.14,0-0.266-0.128-0.266-0.267L172.175,54.794z"/>
<path fill="#FFFFFF" d="M187.246,54.545c2.791,0,5.019,2.24,5.019,5.025c0,2.787-2.228,5-5.019,5c-2.783,0-4.998-2.213-4.998-5
	C182.248,56.785,184.462,54.545,187.246,54.545 M187.246,62.345c1.537,0,2.791-1.254,2.791-2.774c0-1.531-1.254-2.799-2.791-2.799
	c-1.512,0-2.768,1.268-2.768,2.799C184.478,61.091,185.734,62.345,187.246,62.345"/>
<path fill="#FFFFFF" d="M192.615,55.044c-0.082-0.182,0.027-0.362,0.233-0.362h1.856c0.111,0,0.207,0.084,0.236,0.151l2.299,5.087
	h0.084l2.299-5.087c0.027-0.067,0.127-0.151,0.24-0.151h1.853c0.206,0,0.315,0.181,0.233,0.362l-4.375,9.377
	c-0.037,0.083-0.125,0.15-0.236,0.15h-0.141c-0.109,0-0.192-0.067-0.235-0.15L192.615,55.044z"/>
<path fill="#FFFFFF" d="M201.057,64.07l4.364-9.376c0.039-0.08,0.136-0.149,0.236-0.149h0.139c0.097,0,0.195,0.069,0.236,0.149
	l4.363,9.376c0.08,0.184-0.029,0.365-0.24,0.365h-1.548c-0.251,0-0.356-0.084-0.485-0.349l-0.5-1.1h-3.789l-0.502,1.115
	c-0.072,0.163-0.225,0.333-0.504,0.333h-1.531C201.085,64.436,200.975,64.254,201.057,64.07 M206.787,61.091l-1.062-2.298h-0.013
	l-1.045,2.298H206.787z"/>
<path fill="#FFFFFF" d="M215.773,54.545c1.393,0,2.425,0.431,3.371,1.294c0.125,0.11,0.125,0.279,0.014,0.388l-1.089,1.131
	c-0.096,0.099-0.248,0.099-0.346,0c-0.513-0.461-1.199-0.711-1.88-0.711c-1.577,0-2.73,1.309-2.73,2.868
	c0,1.55,1.17,2.83,2.744,2.83c0.658,0,1.363-0.237,1.866-0.67c0.098-0.082,0.276-0.082,0.36,0.017l1.088,1.155
	c0.098,0.094,0.08,0.277-0.014,0.375c-0.945,0.921-2.148,1.349-3.385,1.349c-2.785,0-5.033-2.213-5.033-5
	C210.74,56.785,212.988,54.545,215.773,54.545"/>
<path fill="#FFFFFF" d="M220.832,54.947c0-0.139,0.123-0.267,0.267-0.267h1.67c0.142,0,0.267,0.128,0.267,0.267v9.222
	c0,0.139-0.125,0.267-0.267,0.267h-1.67c-0.144,0-0.267-0.128-0.267-0.267V54.947z"/>
<path fill="#FFFFFF" d="M229.722,54.545c2.783,0,5.014,2.241,5.014,5.026c0,2.787-2.23,5-5.014,5c-2.787,0-5.004-2.213-5.004-5
	C224.718,56.786,226.935,54.545,229.722,54.545 M229.722,62.345c1.529,0,2.783-1.254,2.783-2.773c0-1.532-1.254-2.801-2.783-2.801
	c-1.521,0-2.773,1.269-2.773,2.801C226.949,61.091,228.201,62.345,229.722,62.345 M228.353,53.694l-0.289-0.585
	c-0.059-0.113,0.014-0.212,0.081-0.268l2.37-1.446c0.084-0.058,0.292-0.086,0.359,0.039l0.474,0.824
	c0.112,0.209,0.029,0.348-0.082,0.417l-2.532,1.145C228.548,53.928,228.423,53.834,228.353,53.694"/>
<path fill="#FFFFFF" d="M236.41,54.794c0-0.14,0.124-0.25,0.268-0.25h0.346l5.558,5.349h0.015v-4.945
	c0-0.139,0.11-0.266,0.265-0.266h1.672c0.14,0,0.265,0.127,0.265,0.266v9.377c0,0.14-0.125,0.247-0.265,0.247h-0.222
	c-0.041,0-0.156-0.039-0.182-0.066l-5.505-5.531h-0.013v5.195c0,0.139-0.109,0.267-0.264,0.267h-1.658
	c-0.139,0-0.264-0.128-0.264-0.267L236.41,54.794z"/>
<path fill="#FFFFFF" d="M136.431,67.134c0-0.494,0.334-0.842,0.799-0.842c0.468,0,0.789,0.348,0.789,0.842
	c0,0.481-0.308,0.838-0.803,0.838C136.752,67.972,136.431,67.615,136.431,67.134"/>
<path fill="#FFFFFF" d="M139.196,67.134c0-0.494,0.333-0.842,0.799-0.842s0.789,0.348,0.789,0.842c0,0.481-0.306,0.838-0.804,0.838
	C139.515,67.972,139.196,67.615,139.196,67.134"/>
<path fill="#FFFFFF" d="M141.958,67.134c0-0.494,0.335-0.842,0.798-0.842c0.468,0,0.789,0.348,0.789,0.842
	c0,0.481-0.308,0.838-0.801,0.838C142.279,67.972,141.958,67.615,141.958,67.134"/>
<path fill="#FFFFFF" d="M144.72,67.134c0-0.494,0.334-0.842,0.803-0.842c0.467,0,0.782,0.348,0.782,0.842
	c0,0.481-0.302,0.838-0.798,0.838C145.042,67.972,144.72,67.615,144.72,67.134"/>
<path fill="#FFFFFF" d="M147.484,67.134c0-0.494,0.333-0.842,0.803-0.842c0.465,0,0.787,0.348,0.787,0.842
	c0,0.481-0.311,0.838-0.799,0.838C147.804,67.972,147.484,67.615,147.484,67.134"/>
<path fill="#FFFFFF" d="M150.248,67.134c0-0.494,0.332-0.842,0.801-0.842s0.789,0.348,0.789,0.842c0,0.481-0.308,0.838-0.803,0.838
	C150.569,67.972,150.248,67.615,150.248,67.134"/>
<path fill="#FFFFFF" d="M153.011,67.134c0-0.494,0.338-0.842,0.799-0.842c0.47,0,0.793,0.348,0.793,0.842
	c0,0.481-0.309,0.838-0.805,0.838C153.332,67.972,153.011,67.615,153.011,67.134"/>
<path fill="#FFFFFF" d="M155.777,67.134c0-0.494,0.334-0.842,0.8-0.842c0.468,0,0.79,0.348,0.79,0.842
	c0,0.481-0.308,0.838-0.802,0.838C156.097,67.972,155.777,67.615,155.777,67.134"/>
<path fill="#FFFFFF" d="M158.541,67.134c0-0.494,0.334-0.842,0.797-0.842c0.469,0,0.795,0.348,0.795,0.842
	c0,0.481-0.311,0.838-0.805,0.838C158.862,67.972,158.541,67.615,158.541,67.134"/>
<path fill="#FFFFFF" d="M161.302,67.134c0-0.494,0.334-0.842,0.803-0.842c0.467,0,0.787,0.348,0.787,0.842
	c0,0.481-0.31,0.838-0.801,0.838C161.625,67.972,161.302,67.615,161.302,67.134"/>
<path fill="#FFFFFF" d="M164.068,67.134c0-0.494,0.334-0.842,0.797-0.842c0.469,0,0.789,0.348,0.789,0.842
	c0,0.481-0.309,0.838-0.801,0.838C164.388,67.972,164.068,67.615,164.068,67.134"/>
<path fill="#FFFFFF" d="M166.828,67.134c0-0.494,0.336-0.842,0.804-0.842c0.465,0,0.788,0.348,0.788,0.842
	c0,0.481-0.307,0.838-0.801,0.838C167.148,67.972,166.828,67.615,166.828,67.134"/>
<path fill="#FFFFFF" d="M169.594,67.134c0-0.494,0.333-0.842,0.802-0.842s0.789,0.348,0.789,0.842c0,0.481-0.307,0.838-0.806,0.838
	C169.916,67.972,169.594,67.615,169.594,67.134"/>
<path fill="#FFFFFF" d="M172.357,67.134c0-0.494,0.336-0.842,0.803-0.842s0.789,0.348,0.789,0.842c0,0.481-0.309,0.838-0.805,0.838
	C172.678,67.972,172.357,67.615,172.357,67.134"/>
<path fill="#FFFFFF" d="M175.124,67.134c0-0.494,0.331-0.842,0.799-0.842c0.47,0,0.787,0.348,0.787,0.842
	c0,0.481-0.31,0.838-0.8,0.838C175.445,67.972,175.124,67.615,175.124,67.134"/>
<path fill="#FFFFFF" d="M177.886,67.134c0-0.494,0.332-0.842,0.8-0.842s0.788,0.348,0.788,0.842c0,0.481-0.306,0.838-0.801,0.838
	C178.205,67.972,177.886,67.615,177.886,67.134"/>
<path fill="#FFFFFF" d="M180.652,67.134c0-0.494,0.332-0.842,0.797-0.842c0.467,0,0.787,0.348,0.787,0.842
	c0,0.481-0.307,0.838-0.799,0.838C180.969,67.972,180.652,67.615,180.652,67.134"/>
<path fill="#FFFFFF" d="M183.414,67.134c0-0.494,0.334-0.842,0.797-0.842c0.468,0,0.791,0.348,0.791,0.842
	c0,0.481-0.305,0.838-0.803,0.838C183.733,67.972,183.414,67.615,183.414,67.134"/>
<path fill="#FFFFFF" d="M186.175,67.134c0-0.494,0.334-0.842,0.803-0.842c0.465,0,0.787,0.348,0.787,0.842
	c0,0.481-0.307,0.838-0.799,0.838C186.497,67.972,186.175,67.615,186.175,67.134"/>
<path fill="#FFFFFF" d="M188.939,67.134c0-0.494,0.334-0.842,0.803-0.842c0.467,0,0.788,0.348,0.788,0.842
	c0,0.481-0.31,0.838-0.806,0.838C189.259,67.972,188.939,67.615,188.939,67.134"/>
<path fill="#FFFFFF" d="M191.703,67.134c0-0.494,0.335-0.842,0.802-0.842c0.464,0,0.789,0.348,0.789,0.842
	c0,0.481-0.31,0.838-0.803,0.838C192.025,67.972,191.703,67.615,191.703,67.134"/>
<path fill="#FFFFFF" d="M194.465,67.134c0-0.494,0.335-0.842,0.799-0.842c0.472,0,0.794,0.348,0.794,0.842
	c0,0.481-0.312,0.838-0.805,0.838C194.786,67.972,194.465,67.615,194.465,67.134"/>
<path fill="#FFFFFF" d="M197.233,67.134c0-0.494,0.332-0.842,0.798-0.842c0.47,0,0.79,0.348,0.79,0.842
	c0,0.481-0.308,0.838-0.802,0.838C197.55,67.972,197.233,67.615,197.233,67.134"/>
<path fill="#FFFFFF" d="M199.994,67.134c0-0.494,0.334-0.842,0.801-0.842c0.469,0,0.787,0.348,0.787,0.842
	c0,0.481-0.307,0.838-0.803,0.838C200.313,67.972,199.994,67.615,199.994,67.134"/>
<path fill="#FFFFFF" d="M202.756,67.134c0-0.494,0.336-0.842,0.804-0.842c0.466,0,0.785,0.348,0.785,0.842
	c0,0.481-0.309,0.838-0.797,0.838C203.078,67.972,202.756,67.615,202.756,67.134"/>
<path fill="#FFFFFF" d="M205.519,67.134c0-0.494,0.333-0.842,0.806-0.842c0.464,0,0.786,0.348,0.786,0.842
	c0,0.481-0.309,0.838-0.804,0.838C205.843,67.972,205.519,67.615,205.519,67.134"/>
<path fill="#FFFFFF" d="M208.289,67.134c0-0.494,0.33-0.842,0.797-0.842s0.787,0.348,0.787,0.842c0,0.481-0.307,0.838-0.799,0.838
	C208.607,67.972,208.289,67.615,208.289,67.134"/>
<path fill="#FFFFFF" d="M211.051,67.134c0-0.494,0.333-0.842,0.799-0.842c0.468,0,0.79,0.348,0.79,0.842
	c0,0.481-0.311,0.838-0.805,0.838C211.369,67.972,211.051,67.615,211.051,67.134"/>
<path fill="#FFFFFF" d="M213.814,67.134c0-0.494,0.335-0.842,0.8-0.842c0.468,0,0.788,0.348,0.788,0.842
	c0,0.481-0.306,0.838-0.802,0.838C214.132,67.972,213.814,67.615,213.814,67.134"/>
<path fill="#FFFFFF" d="M216.575,67.134c0-0.494,0.335-0.842,0.804-0.842c0.467,0,0.787,0.348,0.787,0.842
	c0,0.481-0.309,0.838-0.804,0.838C216.898,67.972,216.575,67.615,216.575,67.134"/>
<path fill="#FFFFFF" d="M219.341,67.134c0-0.494,0.33-0.842,0.802-0.842c0.465,0,0.784,0.348,0.784,0.842
	c0,0.481-0.307,0.838-0.801,0.838C219.664,67.972,219.341,67.615,219.341,67.134"/>
<path fill="#FFFFFF" d="M222.101,67.134c0-0.494,0.334-0.842,0.807-0.842c0.464,0,0.787,0.348,0.787,0.842
	c0,0.481-0.307,0.838-0.806,0.838C222.423,67.972,222.101,67.615,222.101,67.134"/>
<path fill="#FFFFFF" d="M224.869,67.134c0-0.494,0.33-0.842,0.798-0.842c0.47,0,0.787,0.348,0.787,0.842
	c0,0.481-0.305,0.838-0.8,0.838C225.19,67.972,224.869,67.615,224.869,67.134"/>
<path fill="#FFFFFF" d="M227.63,67.134c0-0.494,0.333-0.842,0.802-0.842c0.468,0,0.787,0.348,0.787,0.842
	c0,0.481-0.308,0.838-0.8,0.838C227.953,67.972,227.63,67.615,227.63,67.134"/>
<path fill="#FFFFFF" d="M230.393,67.134c0-0.494,0.335-0.842,0.802-0.842s0.787,0.348,0.787,0.842c0,0.481-0.308,0.838-0.801,0.838
	C230.715,67.972,230.393,67.615,230.393,67.134"/>
<path fill="#FFFFFF" d="M233.161,67.134c0-0.494,0.333-0.842,0.797-0.842c0.472,0,0.791,0.348,0.791,0.842
	c0,0.481-0.308,0.838-0.802,0.838C233.478,67.972,233.161,67.615,233.161,67.134"/>
<path fill="#FFFFFF" d="M235.923,67.134c0-0.494,0.336-0.842,0.797-0.842c0.469,0,0.79,0.348,0.79,0.842
	c0,0.481-0.31,0.838-0.801,0.838C236.242,67.972,235.923,67.615,235.923,67.134"/>
<path fill="#FFFFFF" d="M238.686,67.134c0-0.494,0.332-0.842,0.8-0.842c0.469,0,0.79,0.348,0.79,0.842
	c0,0.481-0.306,0.838-0.802,0.838C239.007,67.972,238.686,67.615,238.686,67.134"/>
<path fill="#FFFFFF" d="M241.449,67.134c0-0.494,0.335-0.842,0.803-0.842c0.465,0,0.787,0.348,0.787,0.842
	c0,0.481-0.309,0.838-0.802,0.838C241.77,67.972,241.449,67.615,241.449,67.134"/>
<path fill="#FFFFFF" d="M244.214,67.134c0-0.494,0.33-0.842,0.802-0.842c0.467,0,0.786,0.348,0.786,0.842
	c0,0.481-0.307,0.838-0.801,0.838C244.535,67.972,244.214,67.615,244.214,67.134"/>
<path fill="#FFFFFF" d="M246.977,67.134c0-0.494,0.333-0.842,0.802-0.842c0.466,0,0.786,0.348,0.786,0.842
	c0,0.481-0.308,0.838-0.8,0.838C247.298,67.972,246.977,67.615,246.977,67.134"/>
<g>
	<defs>
		<rect id="SVGID_1_" x="136.547" y="70.198" width="62.36" height="7.078"/>
	</defs>
	<clipPath id="SVGID_2_">
		<use xlink:href="#SVGID_1_"  overflow="visible"/>
	</clipPath>
	<path clip-path="url(#SVGID_2_)" fill="#FFFFFF" d="M124.213,70.196l-4.708,11.935h2.124l4.706-11.935H124.213z M120.186,70.196
		l-4.706,11.935h2.124l4.707-11.935H120.186z M128.24,70.196l-4.708,11.935h2.123l4.706-11.935H128.24z M112.135,70.196
		l-4.706,11.935h2.125l4.703-11.935H112.135z M136.289,70.196l-4.706,11.935h2.119l4.71-11.935H136.289z M132.264,70.196
		l-4.709,11.935h2.125l4.708-11.935H132.264z M108.11,70.196l-4.704,11.935h2.123l4.706-11.935H108.11z M83.959,70.196
		l-4.706,11.935h2.123l4.704-11.935H83.959z M87.983,70.196l-4.707,11.935h2.126l4.703-11.935H87.983z M92.006,70.196l-4.704,11.935
		h2.122l4.709-11.935H92.006z M140.313,70.196l-4.704,11.935h2.121l4.708-11.935H140.313z M104.084,70.196l-4.705,11.935h2.123
		l4.704-11.935H104.084z M96.032,70.196l-4.705,11.935h2.122l4.706-11.935H96.032z M100.061,70.196l-4.708,11.935h2.125
		l4.707-11.935H100.061z M116.16,70.196l-4.707,11.935h2.125l4.708-11.935H116.16z M144.337,70.196l-4.705,11.935h2.125
		l4.705-11.935H144.337z M184.593,70.196l-4.705,11.935h2.123l4.705-11.935H184.593z M180.569,70.196l-4.706,11.935h2.122
		l4.705-11.935H180.569z M188.62,70.196l-4.709,11.935h2.128l4.704-11.935H188.62z M197.632,70.196h-0.963l-4.707,11.935h1.18
		c0.933,0,1.963-0.71,2.293-1.589l3.296-8.758C199.056,70.911,198.564,70.196,197.632,70.196 M192.642,70.196l-4.701,11.935h2.124
		l4.704-11.935H192.642z M81.083,70.196c-0.933,0-1.963,0.715-2.294,1.588l-3.297,8.758c-0.33,0.879,0.168,1.589,1.098,1.589h0.758
		l4.707-11.935H81.083z M176.544,70.196l-4.707,11.935h2.123l4.703-11.935H176.544z M152.388,70.196l-4.705,11.935h2.125
		l4.705-11.935H152.388z M148.366,70.196l-4.706,11.935h2.122l4.704-11.935H148.366z M172.519,70.196l-4.707,11.935h2.121
		l4.705-11.935H172.519z M156.416,70.196l-4.709,11.935h2.127l4.703-11.935H156.416z M168.488,70.196l-4.702,11.935h2.121
		l4.709-11.935H168.488z M164.468,70.196l-4.709,11.935h2.125l4.705-11.935H164.468z M160.44,70.196l-4.705,11.935h2.124
		l4.705-11.935H160.44z"/>
</g>
<polygon fill="#FFFFFF" points="28.671,71.573 27.424,71.573 25.505,67.423 25.505,71.573 24.061,71.573 24.061,64.92 25.561,64.92 
	28.032,70.618 30.377,64.92 31.868,64.92 31.868,71.573 30.431,71.573 30.431,67.423 "/>
<polygon fill="#FFFFFF" points="42.856,65.787 39.645,65.787 39.645,67.604 42.202,67.604 42.202,68.46 39.645,68.46 39.645,70.713 
	42.994,70.713 42.994,71.574 38.202,71.574 38.202,64.92 42.856,64.92 "/>
<path fill="#FFFFFF" d="M51.076,64.919c0.755,0,1.395,0.094,1.924,0.26c0.522,0.179,0.951,0.408,1.284,0.702
	c0.332,0.303,0.579,0.645,0.729,1.033c0.148,0.396,0.215,0.808,0.215,1.247c0,0.311-0.027,0.601-0.087,0.888
	c-0.069,0.288-0.171,0.554-0.302,0.812c-0.144,0.25-0.32,0.48-0.542,0.691c-0.217,0.208-0.483,0.389-0.799,0.544
	c-0.311,0.155-0.673,0.271-1.084,0.354c-0.409,0.083-0.875,0.124-1.398,0.124H49.01v-6.654H51.076z M50.45,65.779v4.938h0.441
	c0.412,0,0.776-0.053,1.126-0.161c0.344-0.103,0.642-0.258,0.894-0.472c0.251-0.212,0.448-0.482,0.587-0.8
	c0.149-0.321,0.219-0.702,0.219-1.135c0-0.307-0.056-0.596-0.151-0.881c-0.09-0.28-0.249-0.538-0.463-0.758
	c-0.217-0.22-0.494-0.398-0.842-0.53c-0.347-0.136-0.769-0.202-1.274-0.202H50.45z"/>
<polygon fill="#FFFFFF" points="66.114,65.787 62.901,65.787 62.901,67.604 65.459,67.604 65.459,68.46 62.901,68.46 62.901,70.713 
	66.248,70.713 66.248,71.574 61.461,71.574 61.461,64.92 66.114,64.92 "/>
<polygon fill="#FFFFFF" points="77.248,71.573 72.263,71.573 72.263,64.92 73.707,64.92 73.707,70.713 77.248,70.713 "/>
<polygon fill="#FFFFFF" points="87.987,71.573 82.994,71.573 82.994,64.92 84.444,64.92 84.444,70.713 87.987,70.713 "/>
<path fill="#FFFFFF" d="M93.369,64.021l1.799-1.819l0.991,0.883l-2.217,1.386L93.369,64.021z M93.729,64.919h1.448v6.654h-1.448
	V64.919z"/>
<polygon fill="#FFFFFF" points="102.863,66.812 102.863,71.574 101.417,71.574 101.417,64.92 102.786,64.92 106.274,69.705 
	106.274,64.92 107.718,64.92 107.738,71.574 106.373,71.574 "/>
<path fill="#FFFFFF" d="M25.805,77.138c-0.097,0.138-0.219,0.244-0.359,0.332c-0.141,0.095-0.337,0.139-0.588,0.139
	c-0.371,0-0.663-0.146-0.871-0.423c-0.215-0.288-0.331-0.655-0.331-1.104c0-0.419,0.111-0.774,0.316-1.068
	c0.206-0.291,0.506-0.438,0.915-0.438c0.171,0,0.317,0.025,0.444,0.071c0.129,0.046,0.251,0.135,0.371,0.262l-0.2,0.203
	c-0.089-0.091-0.182-0.158-0.287-0.203c-0.106-0.043-0.217-0.062-0.343-0.062c-0.274,0-0.493,0.115-0.648,0.349
	c-0.155,0.237-0.226,0.513-0.226,0.84c0,0.417,0.08,0.74,0.256,0.964c0.174,0.228,0.371,0.342,0.59,0.342
	c0.216,0,0.371-0.036,0.469-0.103c0.093-0.067,0.182-0.152,0.262-0.267L25.805,77.138z"/>
<polygon fill="#FFFFFF" points="28.391,74.908 27.155,74.908 27.155,75.9 28.14,75.9 28.14,76.146 27.155,76.146 27.155,77.305 
	28.442,77.305 28.442,77.56 26.84,77.56 26.84,74.648 28.391,74.648 "/>
<polygon fill="#FFFFFF" points="29.822,75.173 29.822,77.559 29.515,77.559 29.51,74.648 29.822,74.648 31.27,77.051 31.27,74.648 
	31.581,74.648 31.581,77.559 31.281,77.559 "/>
<polygon fill="#FFFFFF" points="34.668,74.919 33.757,74.919 33.757,77.56 33.447,77.56 33.447,74.919 32.549,74.919 32.549,74.648 
	34.668,74.648 "/>
<path fill="#FFFFFF" d="M35.935,77.559h-0.314v-2.911h0.79c0.311,0,0.54,0.075,0.696,0.222c0.161,0.145,0.234,0.348,0.234,0.617
	c0,0.175-0.059,0.337-0.181,0.48c-0.113,0.146-0.259,0.243-0.42,0.279l0.816,1.313h-0.371l-0.755-1.243
	c-0.016,0-0.181,0.007-0.495,0.007V77.559z M35.935,76.082h0.307c0.248,0,0.44-0.062,0.576-0.169
	c0.133-0.111,0.202-0.26,0.202-0.438c0-0.196-0.056-0.346-0.169-0.437c-0.111-0.094-0.3-0.133-0.566-0.133h-0.35V76.082z"/>
<path fill="#FFFFFF" d="M39.734,77.608c-0.409,0-0.72-0.146-0.945-0.422c-0.226-0.289-0.337-0.668-0.337-1.139
	c0-0.424,0.126-0.769,0.373-1.053c0.251-0.278,0.563-0.42,0.933-0.42c0.406,0,0.709,0.142,0.937,0.42
	c0.214,0.284,0.327,0.651,0.327,1.107c0,0.427-0.122,0.792-0.369,1.077C40.411,77.463,40.105,77.608,39.734,77.608 M39.756,77.341
	c0.242,0,0.455-0.11,0.646-0.331c0.191-0.222,0.283-0.558,0.283-0.988c0-0.281-0.074-0.546-0.223-0.797
	c-0.153-0.256-0.382-0.377-0.695-0.377c-0.302,0-0.546,0.104-0.717,0.34c-0.176,0.219-0.261,0.518-0.261,0.86
	c0,0.415,0.089,0.74,0.274,0.962C39.242,77.23,39.476,77.341,39.756,77.341"/>
<path fill="#FFFFFF" d="M44.101,74.647c0.459,0,0.81,0.134,1.037,0.381c0.226,0.251,0.34,0.597,0.34,1.021
	c0,0.489-0.116,0.861-0.36,1.119c-0.243,0.262-0.591,0.391-1.043,0.391h-0.598v-2.911H44.101z M43.792,74.895v2.422h0.233
	c0.356,0,0.619-0.106,0.815-0.317c0.199-0.211,0.297-0.536,0.297-0.954c0-0.362-0.091-0.648-0.279-0.85
	c-0.183-0.203-0.459-0.301-0.827-0.301H43.792z"/>
<polygon fill="#FFFFFF" points="48.167,74.908 46.934,74.908 46.934,75.9 47.918,75.9 47.918,76.146 46.934,76.146 46.934,77.305 
	48.221,77.305 48.221,77.56 46.614,77.56 46.614,74.648 48.167,74.648 "/>
<rect x="50.61" y="74.648" fill="#FFFFFF" width="0.311" height="2.911"/>
<polygon fill="#FFFFFF" points="52.409,75.173 52.409,77.559 52.098,77.559 52.095,74.648 52.409,74.648 53.854,77.051 
	53.854,74.648 54.172,74.648 54.172,77.559 53.868,77.559 "/>
<polygon fill="#FFFFFF" points="55.661,75.173 55.661,77.559 55.347,77.559 55.347,74.648 55.661,74.648 57.106,77.051 
	57.106,74.648 57.426,74.648 57.426,77.559 57.12,77.559 "/>
<path fill="#FFFFFF" d="M59.845,77.608c-0.406,0-0.725-0.146-0.947-0.422c-0.229-0.289-0.337-0.668-0.337-1.139
	c0-0.424,0.13-0.769,0.384-1.053c0.248-0.278,0.557-0.42,0.926-0.42c0.396,0,0.708,0.142,0.934,0.42
	c0.211,0.284,0.33,0.651,0.33,1.107c0,0.427-0.123,0.792-0.367,1.077C60.522,77.463,60.22,77.608,59.845,77.608 M59.862,77.341
	c0.238,0,0.464-0.11,0.654-0.331c0.184-0.222,0.282-0.558,0.282-0.988c0-0.281-0.075-0.546-0.223-0.797
	c-0.151-0.256-0.378-0.377-0.697-0.377c-0.302,0-0.547,0.104-0.718,0.34c-0.173,0.219-0.262,0.518-0.262,0.86
	c0,0.415,0.092,0.74,0.271,0.962C59.361,77.23,59.582,77.341,59.862,77.341"/>
<polygon fill="#FFFFFF" points="63.896,74.648 64.23,74.648 63.273,77.56 62.971,77.56 62.045,74.648 62.389,74.648 63.135,77.11 
	"/>
<path fill="#FFFFFF" d="M65.963,74.648h0.3l0.961,2.91h-0.346l-0.306-0.991h-0.984l-0.315,0.991h-0.307L65.963,74.648z
	 M65.649,76.344h0.856l-0.422-1.33L65.649,76.344z"/>
<path fill="#FFFFFF" d="M70.278,77.138c-0.093,0.138-0.215,0.244-0.353,0.332c-0.147,0.095-0.34,0.139-0.595,0.139
	c-0.369,0-0.66-0.146-0.874-0.423c-0.217-0.288-0.319-0.655-0.319-1.104c0-0.419,0.102-0.774,0.311-1.068
	c0.204-0.291,0.509-0.438,0.912-0.438c0.172,0,0.316,0.025,0.443,0.071c0.13,0.046,0.255,0.135,0.371,0.262l-0.2,0.203
	c-0.085-0.091-0.18-0.158-0.278-0.203c-0.111-0.043-0.226-0.062-0.349-0.062c-0.279,0-0.493,0.115-0.647,0.349
	c-0.152,0.237-0.233,0.513-0.233,0.84c0,0.417,0.088,0.74,0.261,0.964c0.172,0.228,0.376,0.342,0.591,0.342
	c0.218,0,0.377-0.036,0.466-0.103c0.1-0.067,0.185-0.152,0.263-0.267L70.278,77.138z"/>
<rect x="71.311" y="74.648" fill="#FFFFFF" width="0.314" height="2.911"/>
<path fill="#FFFFFF" d="M74.042,77.608c-0.398,0-0.719-0.146-0.941-0.423c-0.224-0.289-0.336-0.668-0.336-1.137
	c0-0.424,0.127-0.77,0.378-1.054c0.253-0.278,0.563-0.42,0.928-0.42c0.402,0,0.713,0.142,0.935,0.42
	c0.219,0.284,0.325,0.651,0.325,1.106c0,0.429-0.117,0.792-0.358,1.077C74.722,77.463,74.42,77.608,74.042,77.608 M74.066,77.341
	c0.241,0,0.459-0.111,0.648-0.331c0.19-0.222,0.284-0.558,0.284-0.989c0-0.28-0.067-0.545-0.223-0.796
	c-0.146-0.256-0.383-0.378-0.697-0.378c-0.3,0-0.544,0.106-0.72,0.34c-0.166,0.22-0.257,0.52-0.257,0.862
	c0,0.414,0.091,0.739,0.271,0.961C73.559,77.229,73.788,77.341,74.066,77.341 M73.818,74.342l0.566-0.641l0.218,0.229l-0.676,0.521
	L73.818,74.342z"/>
<polygon fill="#FFFFFF" points="76.788,75.173 76.788,77.559 76.475,77.559 76.466,74.648 76.788,74.648 78.234,77.051 
	78.234,74.648 78.547,74.648 78.547,77.559 78.24,77.559 "/>
<polygon fill="#FFFFFF" points="81.705,77.559 81.705,76.231 80.847,74.647 81.185,74.647 81.867,75.961 82.543,74.647 
	82.891,74.647 82.024,76.202 82.024,77.559 "/>
<polygon fill="#FFFFFF" points="85.506,75.173 85.506,77.559 85.192,77.559 85.185,74.648 85.506,74.648 86.946,77.051 
	86.946,74.648 87.264,74.648 87.264,77.559 86.962,77.559 "/>
<polygon fill="#FFFFFF" points="89.996,74.908 88.756,74.908 88.756,75.9 89.746,75.9 89.746,76.146 88.756,76.146 88.756,77.305 
	90.048,77.305 90.048,77.56 88.44,77.56 88.44,74.648 89.996,74.648 "/>
<path fill="#FFFFFF" d="M93.229,77.434c-0.102,0.037-0.236,0.08-0.395,0.117c-0.167,0.038-0.356,0.057-0.57,0.057
	c-0.37,0-0.659-0.144-0.871-0.422c-0.207-0.288-0.315-0.656-0.315-1.104c0-0.419,0.103-0.773,0.31-1.068
	c0.205-0.291,0.497-0.438,0.876-0.438c0.205,0,0.373,0.025,0.485,0.071c0.12,0.045,0.238,0.134,0.37,0.262l-0.2,0.203
	c-0.096-0.091-0.196-0.164-0.289-0.203c-0.094-0.044-0.221-0.061-0.378-0.061c-0.256,0-0.454,0.114-0.611,0.347
	c-0.159,0.239-0.23,0.513-0.23,0.841c0,0.416,0.089,0.739,0.26,0.964c0.174,0.229,0.382,0.343,0.622,0.343
	c0.116,0,0.227-0.012,0.333-0.029c0.106-0.016,0.208-0.034,0.285-0.064V76.16h0.318V77.434z"/>
<path fill="#FFFFFF" d="M95.497,77.608c-0.407,0-0.722-0.146-0.949-0.422c-0.218-0.289-0.328-0.668-0.328-1.139
	c0-0.424,0.124-0.769,0.373-1.053c0.249-0.278,0.562-0.42,0.928-0.42c0.406,0,0.718,0.142,0.939,0.42
	c0.212,0.284,0.329,0.651,0.329,1.107c0,0.427-0.124,0.792-0.368,1.077C96.183,77.463,95.871,77.608,95.497,77.608 M95.519,77.341
	c0.24,0,0.453-0.11,0.646-0.331c0.198-0.222,0.283-0.558,0.283-0.988c0-0.281-0.071-0.546-0.218-0.797
	c-0.154-0.256-0.381-0.377-0.703-0.377c-0.295,0-0.539,0.104-0.712,0.34c-0.171,0.219-0.267,0.518-0.267,0.86
	c0,0.415,0.1,0.74,0.278,0.962C95.007,77.23,95.24,77.341,95.519,77.341"/>
<path fill="#FFFFFF" d="M100.032,77.138c-0.098,0.138-0.218,0.244-0.354,0.332c-0.145,0.095-0.338,0.139-0.597,0.139
	c-0.363,0-0.657-0.146-0.872-0.423c-0.211-0.288-0.32-0.655-0.32-1.104c0-0.419,0.102-0.774,0.311-1.068
	c0.201-0.291,0.511-0.438,0.918-0.438c0.167,0,0.312,0.025,0.441,0.071c0.129,0.046,0.248,0.135,0.37,0.262l-0.197,0.203
	c-0.091-0.091-0.186-0.158-0.293-0.203c-0.099-0.043-0.22-0.062-0.342-0.062c-0.275,0-0.491,0.115-0.644,0.349
	c-0.157,0.237-0.233,0.513-0.233,0.84c0,0.417,0.086,0.74,0.261,0.964c0.174,0.228,0.378,0.342,0.593,0.342
	c0.214,0,0.365-0.036,0.467-0.103c0.093-0.067,0.18-0.152,0.264-0.267L100.032,77.138z"/>
<rect x="101.067" y="74.648" fill="#FFFFFF" width="0.318" height="2.911"/>
<path fill="#FFFFFF" d="M103.801,77.608c-0.408,0-0.724-0.146-0.949-0.422c-0.219-0.289-0.335-0.668-0.335-1.139
	c0-0.424,0.129-0.769,0.376-1.053c0.251-0.278,0.565-0.42,0.935-0.42c0.4,0,0.704,0.142,0.926,0.42
	c0.228,0.284,0.339,0.651,0.339,1.107c0,0.427-0.128,0.792-0.37,1.077C104.477,77.463,104.174,77.608,103.801,77.608
	 M103.819,77.341c0.244,0,0.455-0.11,0.648-0.331c0.195-0.222,0.287-0.558,0.287-0.988c0-0.281-0.073-0.546-0.222-0.797
	c-0.151-0.256-0.381-0.377-0.702-0.377c-0.304,0-0.539,0.104-0.715,0.34c-0.174,0.219-0.263,0.518-0.263,0.86
	c0,0.415,0.096,0.74,0.272,0.962C103.313,77.23,103.54,77.341,103.819,77.341"/>
<path fill="#FFFFFF" d="M106.326,76.972c0.088,0.089,0.195,0.183,0.326,0.259c0.12,0.071,0.269,0.111,0.431,0.111
	c0.2,0,0.349-0.045,0.458-0.133c0.122-0.094,0.178-0.227,0.178-0.384c0-0.166-0.051-0.287-0.162-0.367
	c-0.103-0.08-0.255-0.156-0.474-0.233l-0.151-0.067c-0.224-0.078-0.411-0.188-0.559-0.321c-0.154-0.131-0.229-0.312-0.229-0.53
	c0-0.22,0.093-0.397,0.264-0.535c0.168-0.128,0.384-0.195,0.646-0.195c0.2,0,0.371,0.033,0.503,0.094
	c0.135,0.06,0.256,0.145,0.368,0.254l-0.187,0.213c-0.075-0.074-0.173-0.145-0.284-0.205c-0.104-0.056-0.233-0.083-0.386-0.083
	c-0.176,0-0.318,0.039-0.432,0.116c-0.115,0.081-0.166,0.184-0.166,0.309c0,0.154,0.061,0.272,0.185,0.361
	c0.128,0.094,0.259,0.163,0.388,0.207l0.28,0.12c0.287,0.105,0.48,0.217,0.579,0.341c0.1,0.121,0.154,0.282,0.154,0.48
	c0,0.264-0.099,0.465-0.282,0.608c-0.187,0.151-0.415,0.217-0.691,0.217c-0.102,0-0.21-0.003-0.3-0.021
	c-0.091-0.021-0.177-0.044-0.262-0.078c-0.082-0.033-0.155-0.074-0.226-0.125c-0.076-0.053-0.144-0.117-0.211-0.187L106.326,76.972z
	"/>
<path fill="#FFFFFF" d="M23.972,38.686v20.991h5.266V38.686c0-2.367,1.102-3.466,3.465-3.466h5.739v-5.305h-5.739
	C26.906,29.915,23.972,32.867,23.972,38.686 M108.376,42.127v-3.441c0-5.818-2.945-8.771-8.762-8.771H77.729v-8.318l-5.269-0.04
	v8.358h-9.801V51.02c0,2.288-1.106,3.353-3.465,3.353h-9.813c-2.367,0-3.467-1.097-3.467-3.46V29.915h-5.269v20.997
	c0,5.818,2.936,8.767,8.725,8.767h9.821c5.817,0,8.769-2.915,8.769-8.659v-15.8h4.5v24.459h5.269V35.22h21.886
	c2.358,0,3.462,1.099,3.462,3.466v3.441H89.834c-5.82,0-8.758,2.746-8.758,8.161v1.13c0,5.484,2.938,8.261,8.763,8.261h9.77
	c5.822,0,8.767-2.948,8.767-8.767v-3.476h8.688l5.411-5.31H108.376z M103.077,50.912c0,2.363-1.104,3.46-3.467,3.46h-9.77
	c-2.364,0-3.473-0.938-3.473-2.954v-1.133c0-1.948,1.109-2.849,3.468-2.849h13.242V50.912z"/>
<path fill="#FFFFFF" d="M121.152,26.87l0.69,0.217c-0.419,1.032-0.904,1.791-1.464,2.271c-0.562,0.485-1.139,0.728-1.712,0.728
	c-0.494,0-0.865-0.14-1.137-0.4c-0.274-0.271-0.414-0.627-0.414-1.075c0-0.396,0.132-1.031,0.378-1.907
	c0.371-1.314,0.586-2.116,0.652-2.425c0.063-0.306,0.1-0.55,0.1-0.738c0-0.207-0.058-0.378-0.156-0.493
	c-0.103-0.122-0.227-0.175-0.388-0.175c-0.277,0-0.57,0.11-0.89,0.347c-0.519,0.374-1.01,0.937-1.479,1.696
	c-0.467,0.756-0.808,1.536-1.041,2.341l-0.742,2.647l-2.254,0.09l1.76-6.608c0.014-0.068,0.027-0.135,0.027-0.194
	c0-0.169-0.06-0.294-0.186-0.38c-0.116-0.092-0.347-0.137-0.684-0.137h-0.453l0.124-0.784l3.686-0.165l-0.652,2.763
	c1.257-1.914,2.483-2.862,3.687-2.862c0.538,0,0.982,0.167,1.334,0.505c0.349,0.339,0.52,0.759,0.52,1.27
	c0,0.41-0.08,0.91-0.234,1.5l-0.777,2.908c-0.146,0.459-0.213,0.752-0.213,0.873c0,0.083,0.026,0.15,0.059,0.189
	c0.046,0.047,0.116,0.068,0.193,0.068c0.186,0,0.395-0.11,0.61-0.341C120.458,28.207,120.807,27.628,121.152,26.87"/>
</svg>
